<svg xmlns="http://www.w3.org/2000/svg" enable-background="new 0 0 96 96" viewBox="0 0 96 96" id="dictionary"><path fill="#26d7fe" d="M86,2H70c-1.1044922,0-2,0.8955078-2,2v88c0,1.1044922,0.8955078,2,2,2h16c1.1044922,0,2-0.8955078,2-2V4
			C88,2.8955078,87.1044922,2,86,2z" class="color90caf9 svgShape"></path><path fill="#d45985" d="M92,14H76c-1.1044922,0-2,0.8955078-2,2v10c0,1.1044922,0.8955078,2,2,2h16c1.1044922,0,2-0.8955078,2-2V16
			C94,14.8955078,93.1044922,14,92,14z" class="colorba68c8 svgShape"></path><path fill="#8efd35" d="M92,41H76c-1.1044922,0-2,0.8955078-2,2v10c0,1.1044922,0.8955078,2,2,2h16c1.1044922,0,2-0.8955078,2-2V43
			C94,41.8955078,93.1044922,41,92,41z" class="colorfdd835 svgShape"></path><path fill="#c05c80" d="M92,68H76c-1.1044922,0-2,0.8955078-2,2v10c0,1.1044922,0.8955078,2,2,2h16c1.1044922,0,2-0.8955078,2-2V70
			C94,68.8955078,93.1044922,68,92,68z" class="color5c6bc0 svgShape"></path><path fill="#d85b53" d="M78,2H4C2.8954306,2,2,2.8954306,2,4v88c0,1.1045685,0.8954306,2,2,2h74V2z" class="colore53935 svgShape"></path><circle cx="28" cy="45" r="16" fill="#8efd35" class="colorfdd835 svgShape"></circle><circle cx="54" cy="71" r="16" fill="#9ae45f" class="color66bb6a svgShape"></circle><path fill="#26d7fe" d="M68,8H12c-1.1044922,0-2,0.8955078-2,2v14c0,1.1044922,0.8955078,2,2,2h56c1.1044922,0,2-0.8955078,2-2V10
			C70,8.8955078,69.1044922,8,68,8z" class="color90caf9 svgShape"></path><path fill="#8efd35" d="M21.5185547,74.0683594c-0.8745117-0.2333984-1.7963867,0.1464844-2.2495117,0.9296875L15.5,81.5078125
			l-3.769043-6.5097656c-0.4536133-0.7841797-1.375-1.1640625-2.2495117-0.9296875C8.6074219,74.3027344,8,75.0957031,8,76v18h15V76
			C23,75.0957031,22.3925781,74.3027344,21.5185547,74.0683594z" class="colorfdd835 svgShape"></path><path d="M45,45c0-9.3740234-7.6259766-17-17-17s-17,7.6259766-17,17s7.6259766,17,17,17S45,54.3740234,45,45z M28,58
		c-7.168457,0-13-5.8320312-13-13s5.831543-13,13-13s13,5.8320312,13,13S35.168457,58,28,58z M36,39c0,1.1044922-0.8955078,2-2,2
		h-0.757019c0.081665,2.0704346-0.5576782,4.755188-2.8035889,7.2258911c0.3355103,0.1239014,0.6842041,0.2404785,1.062561,0.338562
		c1.0693359,0.2763672,1.7114258,1.3681641,1.434082,2.4375C32.7026367,51.9023438,31.890625,52.5,31.0014648,52.5
		c-0.1665039,0-0.3349609-0.0205078-0.503418-0.0644531c-1.3758545-0.3566284-2.5455322-0.8591919-3.5480957-1.4337769
		c-0.8025513,0.4761353-1.6830444,0.9307861-2.6838379,1.3458862c-0.2504883,0.1035156-0.5097656,0.1533203-0.7651367,0.1533203
		c-0.784668,0-1.5288086-0.4648438-1.8481445-1.234375c-0.4233398-1.0205078,0.0605469-2.1904297,1.0810547-2.6142578
		c0.3154907-0.1308594,0.5911255-0.2687378,0.8773193-0.4047241c-1.4553223-1.7022095-1.9765625-3.2371216-2.0155029-3.3579712
		c-0.3378906-1.0517578,0.2407227-2.1787109,1.2924805-2.5166016c1.0458984-0.3369141,2.1655273,0.234375,2.5102539,1.2753906
		c0.0349121,0.0999756,0.4428101,1.2058716,1.5923462,2.385376C29.0829468,44.0579834,29.2943115,42.0563965,29.22052,41H22
		c-1.1044922,0-2-0.8955078-2-2s0.8955078-2,2-2h4c0-1.1044922,0.8955078-2,2-2s2,0.8955078,2,2h4
		C35.1044922,37,36,37.8955078,36,39z M54,54c-9.3740234,0-17,7.6259766-17,17s7.6259766,17,17,17s17-7.6259766,17-17
		S63.3740234,54,54,54z M54,84c-7.168457,0-13-5.8320312-13-13s5.831543-13,13-13s13,5.8320312,13,13S61.168457,84,54,84z
		 M54,62.5175781c-3.8598633,0-7,2.8300781-7,6.3095703V77c0,1.1044922,0.8955078,2,2,2s2-0.8955078,2-2v-3h6v3
		c0,1.1044922,0.8955078,2,2,2s2-0.8955078,2-2v-8.1728516C61,65.3476562,57.8598633,62.5175781,54,62.5175781z M51,70v-1.1728516
		c0-1.2519531,1.3740234-2.3095703,3-2.3095703s3,1.0576172,3,2.3095703V70H51z M92,28c1.0999756,0,2-0.9000244,2-2V16
		c0-1.1000366-0.9000244-2-2-2h-4V4c0-1.1044922-0.8955078-2-2-2H76H4C2.8955078,2,2,2.8955078,2,4v88c0,1.1044922,0.8955078,2,2,2
		h72h10c1.1044922,0,2-0.8955078,2-2V82h4c1.0999756,0,2-0.9000244,2-2V70c0-1.1000366-0.9000244-2-2-2h-4V55h4
		c1.0999756,0,2-0.9000244,2-2V43c0-1.1000366-0.9000244-2-2-2h-4V28H92z M90,24H78v-6h12V24z M78,41V28h1v13H78z M78,68V55h1v13H78
		z M84,14h-1V9c0-1.1044922-0.8955078-2-2-2s-2,0.8955078-2,2v5h-1V6h6V14z M6,6h68v84H23V76
		c0-0.9042969-0.6074219-1.6972656-1.4814453-1.9316406c-0.8759766-0.2324219-1.796875,0.1464844-2.2495117,0.9296875
		L15.5,81.5078125l-3.769043-6.5097656c-0.453125-0.7832031-1.3759766-1.1630859-2.2495117-0.9296875
		C8.6074219,74.3027344,8,75.0957031,8,76v14H6V6z M19,90h-7v-6.5537109l1.769043,3.0556641
		C14.1269531,87.1201172,14.7861328,87.5,15.5,87.5s1.3730469-0.3798828,1.730957-0.9980469L19,83.4462891V90z M84,90h-6v-8h1v5
		c0,1.1044922,0.8955078,2,2,2s2-0.8955078,2-2v-5h1V90z M90,78H78v-6h12V78z M84,68h-1V55h1V68z M90,51H78v-6h12V51z M84,41h-1V28
		h1V41z M12,26h56c1.1044922,0,2-0.8955078,2-2V10c0-1.1044922-0.8955078-2-2-2H12c-1.1044922,0-2,0.8955078-2,2v14
		C10,25.1044922,10.8955078,26,12,26z M14,12h52v10H14V12z" fill="#000000" class="color000000 svgShape"></path></svg>